<svg width="32" height="33" viewBox="0 0 32 33" fill="none" xmlns="http://www.w3.org/2000/svg">
<g id="Btn - stackoverflow">
<path id="StackOverflow" d="M19 25.8257H9V23.8257H19V25.8257ZM25 14.1607L23.379 4.82568L21.386 5.17168L23.006 14.5067L25 14.1607ZM19.036 21.0977L9.29 20.1227L9.104 22.1387L18.859 23.0177L19.036 21.0977ZM19.574 18.5107L10.298 15.9027L9.772 17.8567L19.078 20.3567L19.574 18.5107ZM20.778 16.0977L12.481 11.2337L11.452 12.9767L19.75 17.8417L20.778 16.0977ZM22.644 14.6307L17.305 6.80168L15.633 7.94168L20.972 15.7707L22.644 14.6307ZM20 18.8257V26.8257H8V18.8257H6V28.8257H22V18.8257H20Z" fill="#FD6F00"/>
</g>
</svg>
