<svg width="32" height="33" viewBox="0 0 32 33" fill="none" xmlns="http://www.w3.org/2000/svg">
<g id="Btn - twitter">
<path id="&#239;&#130;&#153;" d="M25.5156 11.9507C26.4531 11.2476 27.2969 10.4038 27.9531 9.41943C27.1094 9.79443 26.125 10.0757 25.1406 10.1694C26.1719 9.56006 26.9219 8.62256 27.2969 7.45068C26.3594 8.01318 25.2812 8.43506 24.2031 8.66943C23.2656 7.68506 22 7.12256 20.5938 7.12256C17.875 7.12256 15.6719 9.32568 15.6719 12.0444C15.6719 12.4194 15.7188 12.7944 15.8125 13.1694C11.7344 12.9351 8.07812 10.9663 5.64062 8.01318C5.21875 8.71631 4.98438 9.56006 4.98438 10.4976C4.98438 12.1851 5.82812 13.6851 7.1875 14.5757C6.39062 14.5288 5.59375 14.3413 4.9375 13.9663V14.0132C4.9375 16.4038 6.625 18.3726 8.875 18.8413C8.5 18.9351 8.03125 19.0288 7.60938 19.0288C7.28125 19.0288 7 18.9819 6.67188 18.9351C7.28125 20.9038 9.10938 22.3101 11.2656 22.3569C9.57812 23.6694 7.46875 24.4663 5.17188 24.4663C4.75 24.4663 4.375 24.4194 4 24.3726C6.15625 25.7788 8.73438 26.5757 11.5469 26.5757C20.5938 26.5757 25.5156 19.1226 25.5156 12.6069C25.5156 12.3726 25.5156 12.1851 25.5156 11.9507Z" fill="#FD6F00"/>
</g>
</svg>
