<svg width="32" height="33" viewBox="0 0 32 33" fill="none" xmlns="http://www.w3.org/2000/svg">
<g id="Btn - instagram">
<path id="&#239;&#133;&#173;" d="M16 11.4351C13 11.4351 10.6094 13.8726 10.6094 16.8257C10.6094 19.8257 13 22.2163 16 22.2163C18.9531 22.2163 21.3906 19.8257 21.3906 16.8257C21.3906 13.8726 18.9531 11.4351 16 11.4351ZM16 20.3413C14.0781 20.3413 12.4844 18.7944 12.4844 16.8257C12.4844 14.9038 14.0312 13.3569 16 13.3569C17.9219 13.3569 19.4688 14.9038 19.4688 16.8257C19.4688 18.7944 17.9219 20.3413 16 20.3413ZM22.8438 11.2476C22.8438 10.5444 22.2812 9.98193 21.5781 9.98193C20.875 9.98193 20.3125 10.5444 20.3125 11.2476C20.3125 11.9507 20.875 12.5132 21.5781 12.5132C22.2812 12.5132 22.8438 11.9507 22.8438 11.2476ZM26.4062 12.5132C26.3125 10.8257 25.9375 9.32568 24.7188 8.10693C23.5 6.88818 22 6.51318 20.3125 6.41943C18.5781 6.32568 13.375 6.32568 11.6406 6.41943C9.95312 6.51318 8.5 6.88818 7.23438 8.10693C6.01562 9.32568 5.64062 10.8257 5.54688 12.5132C5.45312 14.2476 5.45312 19.4507 5.54688 21.1851C5.64062 22.8726 6.01562 24.3257 7.23438 25.5913C8.5 26.8101 9.95312 27.1851 11.6406 27.2788C13.375 27.3726 18.5781 27.3726 20.3125 27.2788C22 27.1851 23.5 26.8101 24.7188 25.5913C25.9375 24.3257 26.3125 22.8726 26.4062 21.1851C26.5 19.4507 26.5 14.2476 26.4062 12.5132ZM24.1562 23.0132C23.8281 23.9507 23.0781 24.6538 22.1875 25.0288C20.7812 25.5913 17.5 25.4507 16 25.4507C14.4531 25.4507 11.1719 25.5913 9.8125 25.0288C8.875 24.6538 8.17188 23.9507 7.79688 23.0132C7.23438 21.6538 7.375 18.3726 7.375 16.8257C7.375 15.3257 7.23438 12.0444 7.79688 10.6382C8.17188 9.74756 8.875 9.04443 9.8125 8.66943C11.1719 8.10693 14.4531 8.24756 16 8.24756C17.5 8.24756 20.7812 8.10693 22.1875 8.66943C23.0781 8.99756 23.7812 9.74756 24.1562 10.6382C24.7188 12.0444 24.5781 15.3257 24.5781 16.8257C24.5781 18.3726 24.7188 21.6538 24.1562 23.0132Z" fill="#FD6F00"/>
</g>
</svg>
