<svg width="32" height="33" viewBox="0 0 32 33" fill="none" xmlns="http://www.w3.org/2000/svg">
<g id="Btn - linkedin">
<path id="&#239;&#131;&#161;" d="M10.1875 25.8257V11.8101H5.82812V25.8257H10.1875ZM7.98438 9.93506C9.39062 9.93506 10.5156 8.76318 10.5156 7.35693C10.5156 5.99756 9.39062 4.87256 7.98438 4.87256C6.625 4.87256 5.5 5.99756 5.5 7.35693C5.5 8.76318 6.625 9.93506 7.98438 9.93506ZM26.4531 25.8257H26.5V18.1382C26.5 14.3882 25.6562 11.4819 21.25 11.4819C19.1406 11.4819 17.7344 12.6538 17.125 13.7319H17.0781V11.8101H12.9062V25.8257H17.2656V18.8882C17.2656 17.0601 17.5938 15.3257 19.8438 15.3257C22.0938 15.3257 22.1406 17.3882 22.1406 19.0288V25.8257H26.4531Z" fill="#FD6F00"/>
</g>
</svg>
