<svg width="32" height="33" viewBox="0 0 32 33" fill="none" xmlns="http://www.w3.org/2000/svg">
<g id="Btn - github">
<path id="&#239;&#130;&#155;" d="M12.1094 23.4819C12.1094 23.3882 12.0156 23.2944 11.875 23.2944C11.7344 23.2944 11.6406 23.3882 11.6406 23.4819C11.6406 23.5757 11.7344 23.6694 11.875 23.6226C12.0156 23.6226 12.1094 23.5757 12.1094 23.4819ZM10.6562 23.2476C10.6562 23.3413 10.75 23.4819 10.8906 23.4819C10.9844 23.5288 11.125 23.4819 11.1719 23.3882C11.1719 23.2944 11.125 23.2007 10.9844 23.1538C10.8438 23.1069 10.7031 23.1538 10.6562 23.2476ZM12.7656 23.2007C12.625 23.2007 12.5312 23.2944 12.5312 23.4351C12.5312 23.5288 12.6719 23.5757 12.8125 23.5288C12.9531 23.4819 13.0469 23.4351 13 23.3413C13 23.2476 12.8594 23.1538 12.7656 23.2007ZM15.8125 5.20068C9.34375 5.20068 4.375 10.1694 4.375 16.6382C4.375 21.8413 7.60938 26.2944 12.2969 27.8882C12.9062 27.9819 13.0938 27.6069 13.0938 27.3257C13.0938 26.9976 13.0938 25.4038 13.0938 24.4194C13.0938 24.4194 9.8125 25.1226 9.10938 23.0132C9.10938 23.0132 8.59375 21.6538 7.84375 21.3257C7.84375 21.3257 6.76562 20.5757 7.89062 20.5757C7.89062 20.5757 9.0625 20.6694 9.71875 21.7944C10.75 23.6226 12.4375 23.1069 13.1406 22.7788C13.2344 22.0288 13.5156 21.5132 13.8906 21.1851C11.2656 20.9038 8.59375 20.5288 8.59375 16.0288C8.59375 14.7163 8.96875 14.1069 9.71875 13.2632C9.57812 12.9351 9.20312 11.7163 9.85938 10.0757C10.7969 9.79443 13.0938 11.3413 13.0938 11.3413C14.0312 11.0601 15.0156 10.9663 16 10.9663C17.0312 10.9663 18.0156 11.0601 18.9531 11.3413C18.9531 11.3413 21.2031 9.74756 22.1875 10.0757C22.8438 11.7163 22.4219 12.9351 22.3281 13.2632C23.0781 14.1069 23.5469 14.7163 23.5469 16.0288C23.5469 20.5288 20.7812 20.9038 18.1562 21.1851C18.5781 21.5601 18.9531 22.2632 18.9531 23.3882C18.9531 24.9351 18.9062 26.9038 18.9062 27.2788C18.9062 27.6069 19.1406 27.9819 19.75 27.8413C24.4375 26.2944 27.625 21.8413 27.625 16.6382C27.625 10.1694 22.3281 5.20068 15.8125 5.20068ZM8.92188 21.3726C8.82812 21.4194 8.875 21.5601 8.92188 21.6538C9.01562 21.7007 9.10938 21.7476 9.20312 21.7007C9.25 21.6538 9.25 21.5132 9.15625 21.4194C9.0625 21.3726 8.96875 21.3257 8.92188 21.3726ZM8.40625 20.9976C8.35938 21.0913 8.40625 21.1382 8.5 21.1851C8.59375 21.2319 8.6875 21.2319 8.73438 21.1382C8.73438 21.0913 8.6875 21.0444 8.59375 20.9976C8.5 20.9507 8.45312 20.9507 8.40625 20.9976ZM9.90625 22.6851C9.85938 22.7319 9.85938 22.8726 10 22.9663C10.0938 23.0601 10.2344 23.1069 10.2812 23.0132C10.3281 22.9663 10.3281 22.8257 10.2344 22.7319C10.1406 22.6382 10 22.5913 9.90625 22.6851ZM9.39062 21.9819C9.29688 22.0288 9.29688 22.1694 9.39062 22.2632C9.48438 22.3569 9.57812 22.4038 9.67188 22.3569C9.71875 22.3101 9.71875 22.1694 9.67188 22.0757C9.57812 21.9819 9.48438 21.9351 9.39062 21.9819Z" fill="#FD6F00"/>
</g>
</svg>
